<svg width="60" height="41" viewBox="0 0 60 41" fill="none" xmlns="http://www.w3.org/2000/svg">
<g clip-path="url(#clip0_748_2189)">
<path d="M37.1573 13.3575C36.8993 13.2784 36.6179 13.2018 36.3203 13.1204C35.7605 12.9677 35.1264 12.7947 34.3959 12.5402C32.153 11.757 31.0118 10.4266 30.5621 9.88714C31.0525 9.60453 32.7476 8.64114 33.899 8.14777C36.2413 7.14367 39.3889 5.51268 39.6763 2.95482C39.7613 2.201 39.5284 1.47292 39.0206 0.904709C38.5069 0.32991 37.7854 0 37.0418 0C35.9772 0 35.0366 0.683771 34.4624 1.87648C34.3558 2.09682 34.2552 2.30039 34.154 2.49858C33.3265 4.12717 32.4661 5.4534 31.5243 6.55211C31.1238 7.01853 30.7292 7.41969 30.3178 7.77894C30.1586 7.91785 29.9867 8.05556 29.8047 8.18909C29.6017 6.64791 29.0772 5.14505 29.0712 5.12708C27.672 1.34659 25.2297 0 23.4101 0C22.9898 0 22.5868 0.0688561 22.2126 0.204772C21.527 0.453253 21.0205 0.874772 20.7067 1.45616C20.2409 2.31835 20.3127 3.37814 20.8947 4.22237C21.3564 4.89297 21.9695 5.21031 22.8083 5.50489C23.0538 5.59111 23.3221 5.67254 23.6053 5.75876C24.1687 5.92941 24.807 6.1234 25.5308 6.43176C27.3474 7.20594 28.3126 8.49864 28.5785 8.8998C28.0624 9.14529 26.2032 10.0266 25.1303 10.508C24.477 10.8008 23.7963 11.2146 22.9874 11.8097C21.7653 12.709 20.9762 13.6239 20.5738 14.6065C20.1864 15.5519 20.1439 16.9865 20.9642 17.902C21.4707 18.4672 22.2467 18.8049 23.0389 18.8049C23.1053 18.8049 23.1724 18.8025 23.2382 18.7977C23.6406 18.769 24.0376 18.6408 24.3866 18.4271C25.0746 18.0056 25.4752 17.2404 25.747 16.6213C25.747 16.6213 25.8129 16.4716 25.8434 16.4039C26.1643 15.6746 26.5008 14.9322 26.8433 14.1969C27.2025 13.4245 27.7121 12.645 28.3563 11.881C28.6509 11.5319 29.0796 11.1116 29.2946 10.9056C29.6131 11.575 30.8076 14.0736 31.3513 15.0657C32.6625 17.4565 34.6336 18.8839 36.6251 18.8839C37.1035 18.8839 37.5543 18.7983 37.9663 18.6301C38.6416 18.3534 39.1308 17.9122 39.4206 17.3188C39.8511 16.4386 39.7362 15.3819 39.1212 14.5622C38.6327 13.9101 38.0076 13.6179 37.1573 13.3581V13.3575Z" fill="url(#paint0_linear_748_2189)"/>
<path d="M11.1601 26.8839H9.05667L5.76176 31.8475L2.46685 26.8839H0.283806L4.66964 33.463L0 40.4869H2.12316L5.72044 35.0598L9.33928 40.4869H11.5038L6.81376 33.4228L11.1601 26.8839Z" fill="black"/>
<path d="M19.624 32.7223C19.624 32.7223 18.763 31.6757 17.7134 31.2434C17.7086 31.2416 17.7038 31.2392 17.699 31.2374C17.2218 31.0428 16.7189 30.944 16.2045 30.944C15.3848 30.944 14.6244 31.1614 13.9437 31.5895C13.2599 32.02 12.7132 32.6115 12.3204 33.3474C11.9259 34.0857 11.7259 34.9125 11.7259 35.8065C11.7259 36.7004 11.9259 37.5315 12.321 38.2763C12.7144 39.0188 13.2599 39.6133 13.9437 40.0432C14.6238 40.4719 15.3842 40.6887 16.2045 40.6887C16.7189 40.6887 17.2308 40.6108 17.699 40.3953C19.0875 39.7558 19.6234 38.9942 19.6234 38.9942V40.4869H21.3292V31.1458H19.6234V32.7217L19.624 32.7223ZM19.624 37.4117L19.5899 37.4728C19.324 37.9458 18.9151 38.3374 18.375 38.6362C17.8391 38.9331 17.2655 39.084 16.6698 39.084C16.074 39.084 15.5178 38.9397 15.0214 38.6547C14.5238 38.3697 14.1269 37.9727 13.8419 37.4752C13.5569 36.9782 13.4126 36.4172 13.4126 35.8065C13.4126 35.1957 13.5575 34.6371 13.8431 34.1467C14.1287 33.6564 14.525 33.2636 15.022 32.9786C15.5184 32.6936 16.0734 32.5493 16.6704 32.5493C17.2673 32.5493 17.8571 32.7002 18.387 32.9977C18.9211 33.2977 19.3264 33.6965 19.5922 34.1839L19.6252 34.2437V37.4123L19.624 37.4117Z" fill="black"/>
<path d="M29.6973 31.1458H23.2596V40.4869H24.9654V32.7505H29.9452V40.4869H31.6714V33.1199C31.6714 32.5427 31.4888 32.0793 31.1134 31.7038C30.738 31.3284 30.2745 31.1464 29.6973 31.1464V31.1458Z" fill="black"/>
<path d="M41.1759 32.6966C41.1759 32.6966 40.5628 31.8164 39.2509 31.2368C38.7797 31.0284 38.2708 30.9434 37.7565 30.9434C36.9368 30.9434 36.1764 31.1608 35.4956 31.5889C34.8118 32.0194 34.2652 32.6109 33.8724 33.3468C33.4778 34.0845 33.2778 34.9119 33.2778 35.8059C33.2778 36.6998 33.4778 37.5315 33.873 38.2757C34.2664 39.0182 34.8118 39.6127 35.4956 40.0426C36.1758 40.4713 36.9362 40.6881 37.7565 40.6881C38.2708 40.6881 38.7708 40.5833 39.2509 40.3947C40.1473 40.0432 41.1753 39.0828 41.1753 39.0828V40.4857H42.8812V26.8839H41.1753V32.6966H41.1759ZM41.1759 37.4117L41.1418 37.4728C40.876 37.9458 40.4676 38.3374 39.9269 38.6361C39.3911 38.9331 38.8169 39.084 38.2217 39.084C37.6265 39.084 37.0697 38.9397 36.5733 38.6547C36.0758 38.3697 35.6788 37.9727 35.3938 37.4752C35.1088 36.9782 34.9645 36.4172 34.9645 35.8065C34.9645 35.1957 35.1094 34.6371 35.395 34.1467C35.6806 33.6564 36.077 33.2636 36.5739 32.9786C37.0703 32.6936 37.6253 32.5493 38.2223 32.5493C38.8193 32.5493 39.409 32.7002 39.9389 32.9977C40.473 33.2977 40.8783 33.6971 41.1442 34.1839L41.1771 34.2437V37.4123L41.1759 37.4117Z" fill="black"/>
<path d="M45.5516 31.7038C45.1762 32.0793 44.9941 32.5427 44.9941 33.1199V40.4869H46.7V32.7505H50.1134V31.1458H46.9479C46.3838 31.1458 45.927 31.3284 45.5516 31.7032V31.7038Z" fill="black"/>
<path d="M58.2948 31.1458V32.7217C58.2948 32.7217 57.4338 31.6751 56.3842 31.2428C56.3794 31.241 56.3746 31.2386 56.3698 31.2368C55.8926 31.0422 55.3896 30.9434 54.8753 30.9434C54.0556 30.9434 53.2952 31.1608 52.6144 31.5889C51.9307 32.0194 51.384 32.6109 50.9912 33.3468C50.5966 34.0851 50.3967 34.9119 50.3967 35.8059C50.3967 36.6998 50.5966 37.5309 50.9918 38.2757C51.3852 39.0181 51.9307 39.6127 52.6144 40.0426C53.2946 40.4713 54.055 40.6881 54.8753 40.6881C55.3896 40.6881 55.9016 40.6102 56.3698 40.3947C57.7583 39.7552 58.2942 38.9936 58.2942 38.9936V40.4863H60V31.1458H58.2942H58.2948ZM58.2948 37.4117L58.2606 37.4728C57.9948 37.9458 57.5858 38.3374 57.0458 38.6361C56.5099 38.9331 55.9363 39.084 55.3405 39.084C54.7448 39.084 54.1885 38.9397 53.6922 38.6547C53.1946 38.3697 52.7976 37.9727 52.5126 37.4752C52.2276 36.9782 52.0833 36.4172 52.0833 35.8065C52.0833 35.1957 52.2282 34.6371 52.5138 34.1467C52.7994 33.6564 53.1958 33.2636 53.6928 32.9786C54.1891 32.6936 54.7442 32.5493 55.3411 32.5493C55.9381 32.5493 56.5279 32.7001 57.0577 32.9977C57.5918 33.2977 57.9972 33.6965 58.263 34.1838L58.296 34.2437V37.4123L58.2948 37.4117Z" fill="black"/>
</g>
<defs>
<linearGradient id="paint0_linear_748_2189" x1="56.6155" y1="11.3511" x2="7.80549" y2="7.77236" gradientUnits="userSpaceOnUse">
<stop stop-color="#49002D"/>
<stop offset="0.1" stop-color="#550435"/>
<stop offset="0.29" stop-color="#770F4D"/>
<stop offset="0.55" stop-color="#AD2173"/>
<stop offset="0.85" stop-color="#F839A7"/>
<stop offset="0.88" stop-color="#FF3CAC"/>
</linearGradient>
<clipPath id="clip0_748_2189">
<rect width="60" height="40.6887" fill="white"/>
</clipPath>
</defs>
</svg>
