<svg width="20" height="19" viewBox="0 0 20 19" fill="none" xmlns="http://www.w3.org/2000/svg">
<path d="M16.8508 13.3575C16.5928 13.2784 16.3114 13.2018 16.0138 13.1204C15.4539 12.9677 14.8199 12.7947 14.0894 12.5402C11.8465 11.757 10.7053 10.4266 10.2556 9.88714C10.746 9.60453 12.441 8.64114 13.5924 8.14777C15.9347 7.14367 19.0824 5.51268 19.3698 2.95482C19.4548 2.201 19.2219 1.47292 18.7141 0.904709C18.2004 0.32991 17.4789 0 16.7353 0C15.6707 0 14.7301 0.683771 14.1559 1.87648C14.0493 2.09682 13.9487 2.30039 13.8475 2.49858C13.02 4.12717 12.1596 5.4534 11.2178 6.55211C10.8172 7.01853 10.4227 7.41969 10.0113 7.77894C9.85205 7.91785 9.68021 8.05556 9.49819 8.18909C9.29522 6.64791 8.77071 5.14505 8.76472 5.12708C7.36545 1.34659 4.92315 0 3.10356 0C2.68323 0 2.28028 0.0688561 1.90606 0.204772C1.22049 0.453253 0.71395 0.874772 0.400206 1.45616C-0.0656206 2.31835 0.00622922 3.37814 0.588213 4.22237C1.04985 4.89297 1.66297 5.21031 2.50181 5.50489C2.7473 5.59111 3.01554 5.67254 3.29875 5.75876C3.86217 5.92941 4.50044 6.1234 5.22432 6.43176C7.04093 7.20594 8.00611 8.49864 8.27195 8.8998C7.75583 9.14529 5.89672 10.0266 4.82376 10.508C4.17053 10.8008 3.48975 11.2146 2.68084 11.8097C1.45879 12.709 0.669643 13.6239 0.267284 14.6065C-0.120107 15.5519 -0.162618 16.9865 0.657668 17.902C1.16421 18.4672 1.94019 18.8049 2.73233 18.8049C2.79879 18.8049 2.86585 18.8025 2.93172 18.7977C3.33407 18.769 3.73104 18.6408 4.08011 18.4271C4.76808 18.0056 5.16864 17.2404 5.44047 16.6213C5.44047 16.6213 5.50633 16.4716 5.53687 16.4039C5.8578 15.6746 6.1943 14.9322 6.53678 14.1969C6.89603 13.4245 7.40557 12.645 8.04982 11.881C8.3444 11.5319 8.77311 11.1116 8.98806 10.9056C9.30659 11.575 10.5011 14.0736 11.0448 15.0657C12.356 17.4565 14.3271 18.8839 16.3185 18.8839C16.7969 18.8839 17.2478 18.7983 17.6597 18.6301C18.3351 18.3534 18.8243 17.9122 19.1141 17.3188C19.5446 16.4386 19.4296 15.3819 18.8147 14.5622C18.3261 13.9101 17.701 13.6179 16.8508 13.3581V13.3575Z" fill="url(#paint0_linear_1038_397)"/>
<defs>
<linearGradient id="paint0_linear_1038_397" x1="36.309" y1="11.3511" x2="-12.501" y2="7.77236" gradientUnits="userSpaceOnUse">
<stop stop-color="#49002D"/>
<stop offset="0.1" stop-color="#550435"/>
<stop offset="0.29" stop-color="#770F4D"/>
<stop offset="0.55" stop-color="#AD2173"/>
<stop offset="0.85" stop-color="#F839A7"/>
<stop offset="0.88" stop-color="#FF3CAC"/>
</linearGradient>
</defs>
</svg>
